<?xml version="1.0" encoding="UTF-8" standalone="no"?>
<!DOCTYPE svg PUBLIC "-//W3C//DTD SVG 1.1//EN"
 "http://www.w3.org/Graphics/SVG/1.1/DTD/svg11.dtd">
<!-- Generated by graphviz version 9.0.0 (20230911.1827)
 -->
<!-- Pages: 1 -->
<svg width="764pt" height="404pt"
 viewBox="0.00 0.00 764.25 404.00" xmlns="http://www.w3.org/2000/svg" xmlns:xlink="http://www.w3.org/1999/xlink">
<g id="graph0" class="graph" transform="scale(1 1) rotate(0) translate(4 400)">
<polygon fill="white" stroke="none" points="-4,4 -4,-400 760.25,-400 760.25,4 -4,4"/>
<!-- [root] aws_dynamodb_table.cards (expand) -->
<g id="node1" class="node">
<title>[root] aws_dynamodb_table.cards (expand)</title>
<polygon fill="none" stroke="black" points="173.5,-108 0,-108 0,-72 173.5,-72 173.5,-108"/>
<text text-anchor="middle" x="86.75" y="-84.58" font-family="Times New Roman,serif" font-size="14.00">aws_dynamodb_table.cards</text>
</g>
<!-- [root] provider[&quot;registry.terraform.io/hashicorp/aws&quot;] -->
<g id="node8" class="node">
<title>[root] provider[&quot;registry.terraform.io/hashicorp/aws&quot;]</title>
<polygon fill="none" stroke="black" points="342.75,-36 80,-18 342.75,0 605.5,-18 342.75,-36"/>
<text text-anchor="middle" x="342.75" y="-12.58" font-family="Times New Roman,serif" font-size="14.00">provider[&quot;registry.terraform.io/hashicorp/aws&quot;]</text>
</g>
<!-- [root] aws_dynamodb_table.cards (expand)&#45;&gt;[root] provider[&quot;registry.terraform.io/hashicorp/aws&quot;] -->
<g id="edge1" class="edge">
<title>[root] aws_dynamodb_table.cards (expand)&#45;&gt;[root] provider[&quot;registry.terraform.io/hashicorp/aws&quot;]</title>
<path fill="none" stroke="black" d="M150.69,-71.52C190.4,-60.66 241.2,-46.77 280.58,-36"/>
<polygon fill="black" stroke="black" points="281.44,-39.39 290.16,-33.38 279.6,-32.64 281.44,-39.39"/>
</g>
<!-- [root] aws_iam_instance_profile.ec2_profile (expand) -->
<g id="node2" class="node">
<title>[root] aws_iam_instance_profile.ec2_profile (expand)</title>
<polygon fill="none" stroke="black" points="376.5,-180 149,-180 149,-144 376.5,-144 376.5,-180"/>
<text text-anchor="middle" x="262.75" y="-156.57" font-family="Times New Roman,serif" font-size="14.00">aws_iam_instance_profile.ec2_profile</text>
</g>
<!-- [root] aws_iam_role.s3_ec2 (expand) -->
<g id="node3" class="node">
<title>[root] aws_iam_role.s3_ec2 (expand)</title>
<polygon fill="none" stroke="black" points="331.12,-108 194.38,-108 194.38,-72 331.12,-72 331.12,-108"/>
<text text-anchor="middle" x="262.75" y="-84.58" font-family="Times New Roman,serif" font-size="14.00">aws_iam_role.s3_ec2</text>
</g>
<!-- [root] aws_iam_instance_profile.ec2_profile (expand)&#45;&gt;[root] aws_iam_role.s3_ec2 (expand) -->
<g id="edge2" class="edge">
<title>[root] aws_iam_instance_profile.ec2_profile (expand)&#45;&gt;[root] aws_iam_role.s3_ec2 (expand)</title>
<path fill="none" stroke="black" d="M262.75,-143.7C262.75,-136.41 262.75,-127.73 262.75,-119.54"/>
<polygon fill="black" stroke="black" points="266.25,-119.62 262.75,-109.62 259.25,-119.62 266.25,-119.62"/>
</g>
<!-- [root] aws_iam_role.s3_ec2 (expand)&#45;&gt;[root] provider[&quot;registry.terraform.io/hashicorp/aws&quot;] -->
<g id="edge3" class="edge">
<title>[root] aws_iam_role.s3_ec2 (expand)&#45;&gt;[root] provider[&quot;registry.terraform.io/hashicorp/aws&quot;]</title>
<path fill="none" stroke="black" d="M282.53,-71.7C292.6,-62.88 305,-52.03 315.93,-42.47"/>
<polygon fill="black" stroke="black" points="317.94,-45.36 323.16,-36.14 313.33,-40.09 317.94,-45.36"/>
</g>
<!-- [root] aws_iam_role_policy.s3_ec2_policy (expand) -->
<g id="node4" class="node">
<title>[root] aws_iam_role_policy.s3_ec2_policy (expand)</title>
<polygon fill="none" stroke="black" points="331.12,-252 110.38,-252 110.38,-216 331.12,-216 331.12,-252"/>
<text text-anchor="middle" x="220.75" y="-228.57" font-family="Times New Roman,serif" font-size="14.00">aws_iam_role_policy.s3_ec2_policy</text>
</g>
<!-- [root] aws_iam_role_policy.s3_ec2_policy (expand)&#45;&gt;[root] aws_iam_role.s3_ec2 (expand) -->
<g id="edge4" class="edge">
<title>[root] aws_iam_role_policy.s3_ec2_policy (expand)&#45;&gt;[root] aws_iam_role.s3_ec2 (expand)</title>
<path fill="none" stroke="black" d="M178.21,-215.64C163.28,-207.23 148.14,-195.52 139.75,-180 132.14,-165.93 130.96,-157.37 139.75,-144 150.17,-128.17 166.42,-117.05 183.73,-109.24"/>
<polygon fill="black" stroke="black" points="184.7,-112.63 192.62,-105.59 182.04,-106.15 184.7,-112.63"/>
</g>
<!-- [root] aws_instance.myec2 (expand) -->
<g id="node5" class="node">
<title>[root] aws_instance.myec2 (expand)</title>
<polygon fill="none" stroke="black" points="480.12,-252 349.38,-252 349.38,-216 480.12,-216 480.12,-252"/>
<text text-anchor="middle" x="414.75" y="-228.57" font-family="Times New Roman,serif" font-size="14.00">aws_instance.myec2</text>
</g>
<!-- [root] aws_instance.myec2 (expand)&#45;&gt;[root] aws_iam_instance_profile.ec2_profile (expand) -->
<g id="edge5" class="edge">
<title>[root] aws_instance.myec2 (expand)&#45;&gt;[root] aws_iam_instance_profile.ec2_profile (expand)</title>
<path fill="none" stroke="black" d="M376.79,-215.52C356.85,-206.34 332.21,-194.99 310.95,-185.2"/>
<polygon fill="black" stroke="black" points="312.42,-182.02 301.87,-181.01 309.49,-188.38 312.42,-182.02"/>
</g>
<!-- [root] aws_security_group.dynamicSG (expand) -->
<g id="node7" class="node">
<title>[root] aws_security_group.dynamicSG (expand)</title>
<polygon fill="none" stroke="black" points="593.25,-180 394.25,-180 394.25,-144 593.25,-144 593.25,-180"/>
<text text-anchor="middle" x="493.75" y="-156.57" font-family="Times New Roman,serif" font-size="14.00">aws_security_group.dynamicSG</text>
</g>
<!-- [root] aws_instance.myec2 (expand)&#45;&gt;[root] aws_security_group.dynamicSG (expand) -->
<g id="edge6" class="edge">
<title>[root] aws_instance.myec2 (expand)&#45;&gt;[root] aws_security_group.dynamicSG (expand)</title>
<path fill="none" stroke="black" d="M434.28,-215.7C443.77,-207.28 455.36,-197.02 465.77,-187.79"/>
<polygon fill="black" stroke="black" points="467.88,-190.6 473.04,-181.35 463.23,-185.36 467.88,-190.6"/>
</g>
<!-- [root] aws_s3_bucket.images (expand) -->
<g id="node6" class="node">
<title>[root] aws_s3_bucket.images (expand)</title>
<polygon fill="none" stroke="black" points="756.25,-180 611.25,-180 611.25,-144 756.25,-144 756.25,-180"/>
<text text-anchor="middle" x="683.75" y="-156.57" font-family="Times New Roman,serif" font-size="14.00">aws_s3_bucket.images</text>
</g>
<!-- [root] aws_s3_bucket.images (expand)&#45;&gt;[root] provider[&quot;registry.terraform.io/hashicorp/aws&quot;] -->
<g id="edge7" class="edge">
<title>[root] aws_s3_bucket.images (expand)&#45;&gt;[root] provider[&quot;registry.terraform.io/hashicorp/aws&quot;]</title>
<path fill="none" stroke="black" d="M661.58,-143.51C635.33,-123.58 589.6,-91.27 545.75,-72 507.21,-55.06 462.08,-42.61 424.18,-34.05"/>
<polygon fill="black" stroke="black" points="425.18,-30.69 414.66,-31.96 423.67,-37.53 425.18,-30.69"/>
</g>
<!-- [root] aws_security_group.dynamicSG (expand)&#45;&gt;[root] provider[&quot;registry.terraform.io/hashicorp/aws&quot;] -->
<g id="edge8" class="edge">
<title>[root] aws_security_group.dynamicSG (expand)&#45;&gt;[root] provider[&quot;registry.terraform.io/hashicorp/aws&quot;]</title>
<path fill="none" stroke="black" d="M475.23,-143.59C448.43,-118.38 398.71,-71.62 368.39,-43.11"/>
<polygon fill="black" stroke="black" points="370.8,-40.58 361.12,-36.27 366.01,-45.67 370.8,-40.58"/>
</g>
<!-- [root] var.sg_ports -->
<g id="node9" class="node">
<title>[root] var.sg_ports</title>
<polygon fill="none" stroke="black" points="531,-108 450.5,-108 450.5,-72 537,-72 537,-102 531,-108"/>
<polyline fill="none" stroke="black" points="531,-108 531,-102"/>
<polyline fill="none" stroke="black" points="537,-102 531,-102"/>
<text text-anchor="middle" x="493.75" y="-84.58" font-family="Times New Roman,serif" font-size="14.00">var.sg_ports</text>
</g>
<!-- [root] aws_security_group.dynamicSG (expand)&#45;&gt;[root] var.sg_ports -->
<g id="edge9" class="edge">
<title>[root] aws_security_group.dynamicSG (expand)&#45;&gt;[root] var.sg_ports</title>
<path fill="none" stroke="black" d="M493.75,-143.7C493.75,-136.41 493.75,-127.73 493.75,-119.54"/>
<polygon fill="black" stroke="black" points="497.25,-119.62 493.75,-109.62 490.25,-119.62 497.25,-119.62"/>
</g>
<!-- [root] provider[&quot;registry.terraform.io/hashicorp/aws&quot;] (close) -->
<g id="node10" class="node">
<title>[root] provider[&quot;registry.terraform.io/hashicorp/aws&quot;] (close)</title>
<ellipse fill="none" stroke="black" cx="317.75" cy="-306" rx="237.69" ry="18"/>
<text text-anchor="middle" x="317.75" y="-300.57" font-family="Times New Roman,serif" font-size="14.00">[root] provider[&quot;registry.terraform.io/hashicorp/aws&quot;] (close)</text>
</g>
<!-- [root] provider[&quot;registry.terraform.io/hashicorp/aws&quot;] (close)&#45;&gt;[root] aws_dynamodb_table.cards (expand) -->
<g id="edge10" class="edge">
<title>[root] provider[&quot;registry.terraform.io/hashicorp/aws&quot;] (close)&#45;&gt;[root] aws_dynamodb_table.cards (expand)</title>
<path fill="none" stroke="black" d="M205.96,-289.67C160.92,-281.11 116.18,-268.74 101.75,-252 69.96,-215.13 74.36,-154.34 80.5,-118.95"/>
<polygon fill="black" stroke="black" points="83.87,-119.96 82.32,-109.48 76.99,-118.65 83.87,-119.96"/>
</g>
<!-- [root] provider[&quot;registry.terraform.io/hashicorp/aws&quot;] (close)&#45;&gt;[root] aws_iam_role_policy.s3_ec2_policy (expand) -->
<g id="edge11" class="edge">
<title>[root] provider[&quot;registry.terraform.io/hashicorp/aws&quot;] (close)&#45;&gt;[root] aws_iam_role_policy.s3_ec2_policy (expand)</title>
<path fill="none" stroke="black" d="M293.77,-287.7C281.76,-279.03 267.03,-268.4 253.96,-258.96"/>
<polygon fill="black" stroke="black" points="256.17,-256.25 246.02,-253.23 252.08,-261.92 256.17,-256.25"/>
</g>
<!-- [root] provider[&quot;registry.terraform.io/hashicorp/aws&quot;] (close)&#45;&gt;[root] aws_instance.myec2 (expand) -->
<g id="edge12" class="edge">
<title>[root] provider[&quot;registry.terraform.io/hashicorp/aws&quot;] (close)&#45;&gt;[root] aws_instance.myec2 (expand)</title>
<path fill="none" stroke="black" d="M341.73,-287.7C353.74,-279.03 368.47,-268.4 381.54,-258.96"/>
<polygon fill="black" stroke="black" points="383.42,-261.92 389.48,-253.23 379.33,-256.25 383.42,-261.92"/>
</g>
<!-- [root] provider[&quot;registry.terraform.io/hashicorp/aws&quot;] (close)&#45;&gt;[root] aws_s3_bucket.images (expand) -->
<g id="edge13" class="edge">
<title>[root] provider[&quot;registry.terraform.io/hashicorp/aws&quot;] (close)&#45;&gt;[root] aws_s3_bucket.images (expand)</title>
<path fill="none" stroke="black" d="M378.53,-288.21C411.49,-278.6 452.74,-265.73 488.75,-252 541.42,-231.91 600.02,-204.44 639.1,-185.35"/>
<polygon fill="black" stroke="black" points="640.3,-188.66 647.74,-181.11 637.22,-182.38 640.3,-188.66"/>
</g>
<!-- [root] root -->
<g id="node11" class="node">
<title>[root] root</title>
<ellipse fill="none" stroke="black" cx="317.75" cy="-378" rx="50.07" ry="18"/>
<text text-anchor="middle" x="317.75" y="-372.57" font-family="Times New Roman,serif" font-size="14.00">[root] root</text>
</g>
<!-- [root] root&#45;&gt;[root] provider[&quot;registry.terraform.io/hashicorp/aws&quot;] (close) -->
<g id="edge14" class="edge">
<title>[root] root&#45;&gt;[root] provider[&quot;registry.terraform.io/hashicorp/aws&quot;] (close)</title>
<path fill="none" stroke="black" d="M317.75,-359.7C317.75,-352.41 317.75,-343.73 317.75,-335.54"/>
<polygon fill="black" stroke="black" points="321.25,-335.62 317.75,-325.62 314.25,-335.62 321.25,-335.62"/>
</g>
</g>
</svg>
